<svg width="25" height="25" viewBox="0 0 25 25" fill="none" xmlns="http://www.w3.org/2000/svg">
<g clip-path="url(#clip0_2562_22669)">
<path d="M2.25781 11.5659C1.70553 11.5659 1.25781 12.0136 1.25781 12.5659C1.25781 13.1181 1.70553 13.5659 2.25781 13.5659V11.5659ZM24.2982 13.273C24.6887 12.8825 24.6887 12.2493 24.2982 11.8588L17.9343 5.4948C17.5438 5.10427 16.9106 5.10427 16.5201 5.4948C16.1295 5.88532 16.1295 6.51849 16.5201 6.90901L22.1769 12.5659L16.5201 18.2227C16.1295 18.6132 16.1295 19.2464 16.5201 19.6369C16.9106 20.0275 17.5438 20.0275 17.9343 19.6369L24.2982 13.273ZM2.25781 13.5659H23.5911V11.5659H2.25781V13.5659Z" fill="#2F313B"/>
</g>
<defs>
<clipPath id="clip0_2562_22669">
<rect width="24" height="24" fill="white" transform="translate(0.921875 0.403809)"/>
</clipPath>
</defs>
</svg>
