<svg width="21" height="28" viewBox="0 0 21 28" fill="none" xmlns="http://www.w3.org/2000/svg">
<path d="M10.5 13.0809C9.50544 13.0809 8.55161 12.7253 7.84835 12.0923C7.14509 11.4594 6.75 10.601 6.75 9.70586C6.75 8.81075 7.14509 7.95231 7.84835 7.31937C8.55161 6.68644 9.50544 6.33086 10.5 6.33086C11.4946 6.33086 12.4484 6.68644 13.1517 7.31937C13.8549 7.95231 14.25 8.81075 14.25 9.70586C14.25 10.1491 14.153 10.5879 13.9645 10.9974C13.7761 11.4069 13.4999 11.7789 13.1517 12.0923C12.8034 12.4057 12.39 12.6543 11.9351 12.824C11.4801 12.9936 10.9925 13.0809 10.5 13.0809ZM10.5 0.255859C7.71523 0.255859 5.04451 1.25148 3.07538 3.0237C1.10625 4.79592 0 7.19956 0 9.70586C0 16.7934 10.5 27.2559 10.5 27.2559C10.5 27.2559 21 16.7934 21 9.70586C21 7.19956 19.8938 4.79592 17.9246 3.0237C15.9555 1.25148 13.2848 0.255859 10.5 0.255859Z" fill="url(#paint0_linear_2562_22693)"/>
<defs>
<linearGradient id="paint0_linear_2562_22693" x1="21" y1="0.255849" x2="-1.69637" y2="1.76633" gradientUnits="userSpaceOnUse">
<stop stop-color="#FF8A00"/>
<stop offset="0.613956" stop-color="#FF9E00"/>
<stop offset="0.994515" stop-color="#EEBA00"/>
</linearGradient>
</defs>
</svg>
