<svg width="30" height="49" viewBox="0 0 30 49" fill="none" xmlns="http://www.w3.org/2000/svg">
<path d="M24.9969 23.571H27.4969C27.4969 17.1585 22.6556 12.3223 16.2344 12.3223V14.8223C21.3119 14.8223 24.9969 18.501 24.9969 23.571Z" fill="url(#paint0_linear_2562_22662)"/>
<path d="M16.2504 19.8226C18.8791 19.8226 20.0004 20.9438 20.0004 23.5726H22.5004C22.5004 19.5413 20.2816 17.3226 16.2504 17.3226V19.8226ZM20.5279 26.6263C20.2877 26.408 19.972 26.2916 19.6476 26.3016C19.3232 26.3116 19.0154 26.4473 18.7891 26.6801L15.7979 29.7563C15.0779 29.6188 13.6304 29.1676 12.1404 27.6813C10.6504 26.1901 10.1991 24.7388 10.0654 24.0238L13.1391 21.0313C13.3721 20.8052 13.508 20.4973 13.5181 20.1728C13.5281 19.8483 13.4115 19.5326 13.1929 19.2926L8.5741 14.2138C8.35541 13.973 8.05145 13.8269 7.72679 13.8066C7.40214 13.7863 7.08235 13.8934 6.83535 14.1051L4.12285 16.4313C3.90674 16.6482 3.77775 16.9369 3.76035 17.2426C3.7416 17.5551 3.3841 24.9576 9.1241 30.7001C14.1316 35.7063 20.4041 36.0726 22.1316 36.0726C22.3841 36.0726 22.5391 36.0651 22.5804 36.0626C22.886 36.0455 23.1745 35.9159 23.3904 35.6988L25.7154 32.9851C25.9272 32.7382 26.0345 32.4185 26.0144 32.0939C25.9943 31.7692 25.8485 31.4652 25.6079 31.2463L20.5279 26.6263Z" fill="url(#paint1_linear_2562_22662)"/>
<defs>
<linearGradient id="paint0_linear_2562_22662" x1="27.4969" y1="12.3223" x2="15.3598" y2="13.3621" gradientUnits="userSpaceOnUse">
<stop stop-color="#FF8A00"/>
<stop offset="0.613956" stop-color="#FF9E00"/>
<stop offset="0.994515" stop-color="#EEBA00"/>
</linearGradient>
<linearGradient id="paint1_linear_2562_22662" x1="26.0168" y1="13.8042" x2="2.02038" y2="15.8573" gradientUnits="userSpaceOnUse">
<stop stop-color="#FF8A00"/>
<stop offset="0.613956" stop-color="#FF9E00"/>
<stop offset="0.994515" stop-color="#EEBA00"/>
</linearGradient>
</defs>
</svg>
