<svg width="43" height="42" viewBox="0 0 43 42" fill="none" xmlns="http://www.w3.org/2000/svg">
<path d="M30.383 -0.0012207C26.8732 -0.0012207 23.7125 1.69725 21.5 4.40982C19.2875 1.69674 16.1268 -0.0012207 12.617 -0.0012207C5.07987 -0.0012207 0.5 6.17221 0.5 13.7879C0.5 15.8339 0.8178 17.8033 1.37407 19.6833C1.37407 19.6833 1.87853 21.3803 2.32513 22.3142C8.11273 35.9481 21.4902 41.9932 21.5 41.9988C21.5098 41.9932 34.8873 35.9481 40.6749 22.3142C41.121 21.3803 41.6259 19.6833 41.6259 19.6833C42.1822 17.8033 42.5 15.8339 42.5 13.7879C42.5 6.17221 37.9206 -0.0012207 30.383 -0.0012207Z" fill="white"/>
</svg>
