<svg width="41" height="42" viewBox="0 0 41 42" fill="none" xmlns="http://www.w3.org/2000/svg">
<path d="M39.6493 1.18466C39.0116 0.430627 38.0959 0.000732422 37.1361 0.000732422H3.86397C2.90412 0.000732422 1.98845 0.430627 1.35066 1.18466C0.712871 1.93206 0.409778 2.94401 0.523474 3.94275L4.49544 38.8854C4.69748 40.658 6.13092 42.0007 7.83586 42.0007H33.1705C34.8754 42.0007 36.3088 40.658 36.5109 38.8854L40.4765 3.94275C40.5902 2.94401 40.2871 1.93206 39.6493 1.18466ZM31.9832 10.008C31.5981 11.0795 31.2129 12.1443 30.8277 13.2158C30.3099 14.6577 28.8322 15.4779 27.4114 15.081C25.3004 14.4828 23.1369 14.1753 20.9701 14.1349C20.9704 14.1284 20.9737 14.123 20.9737 14.1165V10.2726C20.9737 9.99878 20.7615 9.77659 20.5001 9.77659C20.2386 9.77659 20.0265 9.99878 20.0265 10.2726V14.1165C20.0265 14.123 20.0298 14.1284 20.03 14.1349C17.8632 14.1752 15.6997 14.4827 13.5886 15.081C12.1678 15.4779 10.6901 14.6577 10.1724 13.2158C9.78716 12.1443 9.4019 11.0795 9.01679 10.008C8.41685 8.34119 9.30724 6.48923 10.949 6.00637C17.1943 4.18089 23.8057 4.18089 30.051 6.00637C31.6928 6.48924 32.5832 8.3412 31.9832 10.008Z" fill="white"/>
</svg>
