<svg width="28" height="34" viewBox="0 0 28 34" fill="none" xmlns="http://www.w3.org/2000/svg">
<path d="M13.995 0.5C10.0825 3.91904 5.16899 5.95931 0.000400906 6.31109V16.8092C-0.0246624 20.0902 1.12618 23.2702 3.24173 25.7656C5.8942 28.8594 9.50933 31.4375 13.995 33.5C18.4704 31.4375 22.0855 28.8594 24.7482 25.7656C26.864 23.2757 28.0183 20.1017 27.9998 16.8247V6.31109C22.8274 5.96263 17.9096 3.92208 13.995 0.5ZM20.9129 18.2839C20.9129 18.4207 20.8589 18.5518 20.7629 18.6485C20.6669 18.7452 20.5366 18.7995 20.4008 18.7995H15.8691V23.3525C15.8691 23.4893 15.8152 23.6204 15.7191 23.7171C15.6231 23.8138 15.4929 23.8681 15.357 23.8681H12.6534C12.5176 23.8681 12.3873 23.8138 12.2913 23.7171C12.1953 23.6204 12.1413 23.4893 12.1413 23.3525V18.8202H7.6096C7.47379 18.8202 7.34355 18.7658 7.24752 18.6691C7.15149 18.5724 7.09754 18.4413 7.09754 18.3045V15.5872C7.09754 15.4504 7.15149 15.3193 7.24752 15.2226C7.34355 15.1259 7.47379 15.0716 7.6096 15.0716H12.1208V10.5083C12.1208 10.3715 12.1748 10.2404 12.2708 10.1437C12.3668 10.047 12.4971 9.99266 12.6329 9.99266H15.3161C15.4519 9.99266 15.5821 10.047 15.6782 10.1437C15.7742 10.2404 15.8281 10.3715 15.8281 10.5083V15.0509H20.3394C20.4752 15.0509 20.6054 15.1053 20.7015 15.202C20.7975 15.2987 20.8514 15.4298 20.8514 15.5666L20.9129 18.2839Z" fill="white"/>
</svg>
