<svg width="20" height="34" viewBox="0 0 20 34" fill="none" xmlns="http://www.w3.org/2000/svg">
<path d="M18.2916 19.4721C16.7731 17.1725 16.2209 14.2596 16.8421 11.4617L18.05 5.90418C18.4297 4.14111 18.6368 2.33972 18.6368 0.5H14.3572C14.0121 0.5 13.7015 0.691638 13.4944 0.95993C13.0112 1.64983 12.459 2.30139 11.8723 2.87631C10.6644 3.9878 9.28386 4.79268 7.76531 5.21429L5.55651 5.90418L5.45298 6.9007C5.28041 8.62543 6.00518 10.3502 7.31665 11.3084L8.283 12.0366L4.24504 14.2596C1.6566 15.716 0 18.6672 0 21.8868C0 24.2247 0.862813 26.3711 2.24331 27.9042C3.62381 29.4373 5.55651 30.3955 7.66178 30.3955C7.79983 30.3955 7.93788 30.5105 7.93788 30.7021V31.9669C7.93788 32.8101 8.5591 33.5 9.31838 33.5H15.8758C16.3244 33.5 16.7386 33.27 16.9802 32.8868L18.2916 30.9321C20.5695 27.5209 20.5695 22.8833 18.2916 19.4721ZM11.0095 21.3118C10.8714 22.1167 10.4918 22.6533 10.1122 23.2282C10.0086 23.3432 9.76704 23.7265 9.28387 24.2247C8.90423 24.6463 8.35203 25.1829 7.59275 25.7578C6.83348 25.1829 6.28128 24.6463 5.90164 24.2247C5.45298 23.7265 5.17688 23.3432 5.07334 23.2282C4.6937 22.6533 4.31406 22.1167 4.17601 21.3118C4.07248 20.7369 4.1415 20.392 4.17601 20.3153C4.21053 20.1237 4.31406 19.7404 4.65919 19.3955C4.9698 19.0888 5.31493 19.0505 5.48749 19.0122C6.17774 18.9355 6.72994 19.3571 6.86799 19.4721C7.28214 19.8171 7.48921 20.2387 7.59275 20.507C7.69629 20.2387 7.86885 19.8171 8.31751 19.4721C8.45556 19.3571 9.00776 18.9355 9.69801 19.0122C9.87058 19.0505 10.2157 19.0888 10.5263 19.3955C10.8714 19.7021 10.975 20.1237 11.0095 20.3153C11.044 20.392 11.113 20.7369 11.0095 21.3118Z" fill="white"/>
</svg>
