<svg width="44" height="44" viewBox="0 0 44 44" fill="none" xmlns="http://www.w3.org/2000/svg">
<path d="M26.3659 20.9769C26.8487 20.9769 27.2588 20.8107 27.5961 20.4783C27.9334 20.1458 28.1021 19.7388 28.1021 19.2573C28.1021 18.7757 27.9359 18.3663 27.6034 18.0289C27.271 17.6916 26.8634 17.5229 26.3806 17.5229C25.8978 17.5229 25.4884 17.6891 25.1523 18.0216C24.8149 18.354 24.6463 18.761 24.6463 19.2426C24.6463 19.7241 24.8125 20.1336 25.1449 20.4709C25.4786 20.8083 25.8844 20.9769 26.3659 20.9769ZM17.6246 20.9769C18.1062 20.9769 18.5156 20.8107 18.8529 20.4783C19.1903 20.1458 19.3589 19.7388 19.3589 19.2573C19.3589 18.7757 19.1927 18.3663 18.8603 18.0289C18.5266 17.6916 18.119 17.5229 17.6374 17.5229C17.1559 17.5229 16.7464 17.6891 16.4091 18.0216C16.0718 18.354 15.9031 18.761 15.9031 19.2426C15.9031 19.7241 16.0693 20.1336 16.4018 20.4709C16.7342 20.8083 17.1418 20.9769 17.6246 20.9769ZM22.0026 29.7568C23.4839 29.7568 24.8418 29.3876 26.0763 28.6494C27.3107 27.9112 28.3032 26.9169 29.0536 25.6666H14.9516C15.7008 26.9169 16.6933 27.9112 17.9289 28.6494C19.1634 29.3876 20.5213 29.7568 22.0026 29.7568ZM22.0044 36.6666C19.9707 36.6666 18.064 36.284 16.2844 35.5189C14.5073 34.7538 12.9539 33.707 11.6241 32.3784C10.2955 31.0486 9.24872 29.4952 8.4836 27.7181C7.71849 25.9422 7.33594 24.0368 7.33594 22.0018C7.33594 19.968 7.71849 18.0613 8.4836 16.2818C9.24872 14.5046 10.2955 12.9512 11.6241 11.6214C12.9539 10.2929 14.5073 9.24603 16.2844 8.48092C18.0603 7.71581 19.9658 7.33325 22.0008 7.33325C24.0345 7.33325 25.9412 7.71581 27.7208 8.48092C29.4979 9.24603 31.0513 10.2929 32.3811 11.6214C33.7097 12.9512 34.7565 14.5046 35.5216 16.2818C36.2867 18.0576 36.6693 19.9631 36.6693 21.9981C36.6693 24.0319 36.2867 25.9385 35.5216 27.7181C34.7565 29.4952 33.7097 31.0486 32.3811 32.3784C31.0513 33.707 29.4979 34.7538 27.7208 35.5189C25.9449 36.284 24.0394 36.6666 22.0044 36.6666ZM22.7359 15.0186C23.2554 15.0186 23.7498 14.9428 24.2191 14.7913C24.6872 14.6397 24.9213 14.3555 24.9213 13.9388C24.9213 13.7212 24.8528 13.5305 24.7159 13.3668C24.579 13.2042 24.4079 13.1229 24.2026 13.1229C23.9582 13.1229 23.7388 13.1688 23.5444 13.2604C23.3501 13.3521 23.0843 13.3979 22.7469 13.3979C21.9574 13.3979 21.2821 13.1174 20.7211 12.5564C20.1601 11.9954 19.8796 11.3238 19.8796 10.5416C19.8796 10.2287 19.8918 9.98731 19.9163 9.81742C19.9407 9.64753 20.0018 9.48131 20.0996 9.31875C19.8002 9.37986 19.5166 9.43242 19.2489 9.47642C18.98 9.52164 18.7038 9.59253 18.4203 9.68909C18.3665 9.8272 18.3262 9.96897 18.2993 10.1144C18.2724 10.2611 18.2589 10.4035 18.2589 10.5416C18.2589 11.776 18.6965 12.8308 19.5716 13.7059C20.4467 14.581 21.5015 15.0186 22.7359 15.0186Z" fill="white"/>
</svg>
