<svg width="25" height="24" viewBox="0 0 25 24" fill="none" xmlns="http://www.w3.org/2000/svg">
<path d="M2.10938 10.9973C1.55709 10.9973 1.10938 11.445 1.10938 11.9973C1.10938 12.5495 1.55709 12.9973 2.10938 12.9973V10.9973ZM24.1498 12.7044C24.5403 12.3138 24.5403 11.6807 24.1498 11.2902L17.7859 4.92619C17.3954 4.53567 16.7622 4.53567 16.3716 4.92619C15.9811 5.31672 15.9811 5.94989 16.3716 6.34041L22.0284 11.9973L16.3716 17.6541C15.9811 18.0446 15.9811 18.6778 16.3716 19.0683C16.7622 19.4589 17.3954 19.4589 17.7859 19.0683L24.1498 12.7044ZM2.10938 12.9973H23.4427V10.9973H2.10938V12.9973Z" fill="#2F313B"/>
</svg>
