<svg width="58" height="57" viewBox="0 0 58 57" fill="none" xmlns="http://www.w3.org/2000/svg">
<circle cx="28.9478" cy="28.6445" r="28.3384" fill="#F4F4F4"/>
<path d="M34.4445 19.3163V17.512C34.4445 17.0378 34.0513 16.6445 33.5771 16.6445C33.1029 16.6445 32.7096 17.0378 32.7096 17.512V19.2469H25.1916V17.512C25.1916 17.0378 24.7983 16.6445 24.3241 16.6445C23.8499 16.6445 23.4567 17.0378 23.4567 17.512V19.3163C20.3338 19.6055 18.8186 21.4676 18.5873 24.232C18.5642 24.5674 18.8417 24.845 19.1656 24.845H38.7356C39.071 24.845 39.3486 24.5558 39.3139 24.232C39.0826 21.4676 37.5674 19.6055 34.4445 19.3163Z" fill="#03989F"/>
<path d="M38.2016 26.5806H19.6957C19.0595 26.5806 18.5391 27.101 18.5391 27.7372V34.862C18.5391 38.3318 20.274 40.6451 24.3222 40.6451H33.5751C37.6233 40.6451 39.3582 38.3318 39.3582 34.862V27.7372C39.3582 27.101 38.8377 26.5806 38.2016 26.5806ZM25.7217 36.2615C25.6638 36.3077 25.606 36.3656 25.5482 36.4003C25.4788 36.4465 25.4094 36.4812 25.34 36.5044C25.2706 36.5391 25.2012 36.5622 25.1318 36.5738C25.0508 36.5853 24.9814 36.5969 24.9005 36.5969C24.7501 36.5969 24.5998 36.5622 24.461 36.5044C24.3106 36.4465 24.1949 36.3656 24.0793 36.2615C23.8711 36.0417 23.7439 35.741 23.7439 35.4403C23.7439 35.1396 23.8711 34.8388 24.0793 34.6191C24.1949 34.515 24.3106 34.434 24.461 34.3762C24.6691 34.2837 24.9005 34.2605 25.1318 34.3068C25.2012 34.3184 25.2706 34.3415 25.34 34.3762C25.4094 34.3993 25.4788 34.434 25.5482 34.4803C25.606 34.5265 25.6638 34.5728 25.7217 34.6191C25.9299 34.8388 26.0571 35.1396 26.0571 35.4403C26.0571 35.741 25.9299 36.0417 25.7217 36.2615ZM25.7217 32.2133C25.5019 32.4215 25.2012 32.5487 24.9005 32.5487C24.5998 32.5487 24.299 32.4215 24.0793 32.2133C23.8711 31.9935 23.7439 31.6928 23.7439 31.3921C23.7439 31.0914 23.8711 30.7907 24.0793 30.5709C24.4031 30.2471 24.912 30.143 25.34 30.328C25.4903 30.3858 25.6176 30.4668 25.7217 30.5709C25.9299 30.7907 26.0571 31.0914 26.0571 31.3921C26.0571 31.6928 25.9299 31.9935 25.7217 32.2133ZM29.7698 36.2615C29.5501 36.4697 29.2494 36.5969 28.9486 36.5969C28.6479 36.5969 28.3472 36.4697 28.1274 36.2615C27.9193 36.0417 27.792 35.741 27.792 35.4403C27.792 35.1396 27.9193 34.8388 28.1274 34.6191C28.5554 34.1911 29.3419 34.1911 29.7698 34.6191C29.978 34.8388 30.1053 35.1396 30.1053 35.4403C30.1053 35.741 29.978 36.0417 29.7698 36.2615ZM29.7698 32.2133C29.712 32.2596 29.6542 32.3058 29.5964 32.3521C29.527 32.3984 29.4576 32.4331 29.3882 32.4562C29.3188 32.4909 29.2494 32.514 29.18 32.5256C29.099 32.5372 29.0296 32.5487 28.9486 32.5487C28.6479 32.5487 28.3472 32.4215 28.1274 32.2133C27.9193 31.9935 27.792 31.6928 27.792 31.3921C27.792 31.0914 27.9193 30.7907 28.1274 30.5709C28.2315 30.4668 28.3588 30.3858 28.5091 30.328C28.9371 30.143 29.446 30.2471 29.7698 30.5709C29.978 30.7907 30.1053 31.0914 30.1053 31.3921C30.1053 31.6928 29.978 31.9935 29.7698 32.2133ZM33.818 36.2615C33.5983 36.4697 33.2975 36.5969 32.9968 36.5969C32.6961 36.5969 32.3954 36.4697 32.1756 36.2615C31.9674 36.0417 31.8402 35.741 31.8402 35.4403C31.8402 35.1396 31.9674 34.8388 32.1756 34.6191C32.6036 34.1911 33.3901 34.1911 33.818 34.6191C34.0262 34.8388 34.1534 35.1396 34.1534 35.4403C34.1534 35.741 34.0262 36.0417 33.818 36.2615ZM33.818 32.2133C33.7602 32.2596 33.7024 32.3058 33.6445 32.3521C33.5751 32.3984 33.5057 32.4331 33.4363 32.4562C33.3669 32.4909 33.2975 32.514 33.2281 32.5256C33.1472 32.5372 33.0662 32.5487 32.9968 32.5487C32.6961 32.5487 32.3954 32.4215 32.1756 32.2133C31.9674 31.9935 31.8402 31.6928 31.8402 31.3921C31.8402 31.0914 31.9674 30.7907 32.1756 30.5709C32.2913 30.4668 32.4069 30.3858 32.5573 30.328C32.7655 30.2355 32.9968 30.2124 33.2281 30.2586C33.2975 30.2702 33.3669 30.2933 33.4363 30.328C33.5057 30.3511 33.5751 30.3858 33.6445 30.4321C33.7024 30.4784 33.7602 30.5246 33.818 30.5709C34.0262 30.7907 34.1534 31.0914 34.1534 31.3921C34.1534 31.6928 34.0262 31.9935 33.818 32.2133Z" fill="#03989F"/>
</svg>
