<svg width="22" height="25" viewBox="0 0 22 25" fill="none" xmlns="http://www.w3.org/2000/svg">
<path d="M16.4445 3.31632V1.512C16.4445 1.03778 16.0513 0.644531 15.5771 0.644531C15.1029 0.644531 14.7096 1.03778 14.7096 1.512V3.24693H7.19159V1.512C7.19159 1.03778 6.79834 0.644531 6.32412 0.644531C5.84991 0.644531 5.45666 1.03778 5.45666 1.512V3.31632C2.33378 3.60548 0.818611 5.46764 0.587287 8.23196C0.564155 8.56738 0.841743 8.84497 1.1656 8.84497H20.7356C21.071 8.84497 21.3486 8.55581 21.3139 8.23196C21.0826 5.46764 19.5674 3.60548 16.4445 3.31632Z" fill="#03989F"/>
<path d="M20.2016 10.5806H1.69568C1.05954 10.5806 0.539062 11.101 0.539062 11.7372V18.862C0.539062 22.3318 2.27399 24.6451 6.32216 24.6451H15.5751C19.6233 24.6451 21.3582 22.3318 21.3582 18.862V11.7372C21.3582 11.101 20.8377 10.5806 20.2016 10.5806ZM7.72167 20.2615C7.66384 20.3077 7.60601 20.3656 7.54818 20.4003C7.47878 20.4465 7.40939 20.4812 7.33999 20.5044C7.27059 20.5391 7.20119 20.5622 7.1318 20.5738C7.05083 20.5853 6.98144 20.5969 6.90047 20.5969C6.75011 20.5969 6.59975 20.5622 6.46096 20.5044C6.3106 20.4465 6.19493 20.3656 6.07927 20.2615C5.87108 20.0417 5.74385 19.741 5.74385 19.4403C5.74385 19.1396 5.87108 18.8388 6.07927 18.6191C6.19493 18.515 6.3106 18.434 6.46096 18.3762C6.66915 18.2837 6.90047 18.2605 7.1318 18.3068C7.20119 18.3184 7.27059 18.3415 7.33999 18.3762C7.40939 18.3993 7.47878 18.434 7.54818 18.4803C7.60601 18.5265 7.66384 18.5728 7.72167 18.6191C7.92987 18.8388 8.05709 19.1396 8.05709 19.4403C8.05709 19.741 7.92987 20.0417 7.72167 20.2615ZM7.72167 16.2133C7.50192 16.4215 7.20119 16.5487 6.90047 16.5487C6.59975 16.5487 6.29903 16.4215 6.07927 16.2133C5.87108 15.9935 5.74385 15.6928 5.74385 15.3921C5.74385 15.0914 5.87108 14.7907 6.07927 14.5709C6.40313 14.2471 6.91204 14.143 7.33999 14.328C7.49035 14.3858 7.61758 14.4668 7.72167 14.5709C7.92987 14.7907 8.05709 15.0914 8.05709 15.3921C8.05709 15.6928 7.92987 15.9935 7.72167 16.2133ZM11.7698 20.2615C11.5501 20.4697 11.2494 20.5969 10.9486 20.5969C10.6479 20.5969 10.3472 20.4697 10.1274 20.2615C9.91925 20.0417 9.79202 19.741 9.79202 19.4403C9.79202 19.1396 9.91925 18.8388 10.1274 18.6191C10.5554 18.1911 11.3419 18.1911 11.7698 18.6191C11.978 18.8388 12.1053 19.1396 12.1053 19.4403C12.1053 19.741 11.978 20.0417 11.7698 20.2615ZM11.7698 16.2133C11.712 16.2596 11.6542 16.3058 11.5964 16.3521C11.527 16.3984 11.4576 16.4331 11.3882 16.4562C11.3188 16.4909 11.2494 16.514 11.18 16.5256C11.099 16.5372 11.0296 16.5487 10.9486 16.5487C10.6479 16.5487 10.3472 16.4215 10.1274 16.2133C9.91925 15.9935 9.79202 15.6928 9.79202 15.3921C9.79202 15.0914 9.91925 14.7907 10.1274 14.5709C10.2315 14.4668 10.3588 14.3858 10.5091 14.328C10.9371 14.143 11.446 14.2471 11.7698 14.5709C11.978 14.7907 12.1053 15.0914 12.1053 15.3921C12.1053 15.6928 11.978 15.9935 11.7698 16.2133ZM15.818 20.2615C15.5983 20.4697 15.2975 20.5969 14.9968 20.5969C14.6961 20.5969 14.3954 20.4697 14.1756 20.2615C13.9674 20.0417 13.8402 19.741 13.8402 19.4403C13.8402 19.1396 13.9674 18.8388 14.1756 18.6191C14.6036 18.1911 15.3901 18.1911 15.818 18.6191C16.0262 18.8388 16.1534 19.1396 16.1534 19.4403C16.1534 19.741 16.0262 20.0417 15.818 20.2615ZM15.818 16.2133C15.7602 16.2596 15.7024 16.3058 15.6445 16.3521C15.5751 16.3984 15.5057 16.4331 15.4363 16.4562C15.3669 16.4909 15.2975 16.514 15.2281 16.5256C15.1472 16.5372 15.0662 16.5487 14.9968 16.5487C14.6961 16.5487 14.3954 16.4215 14.1756 16.2133C13.9674 15.9935 13.8402 15.6928 13.8402 15.3921C13.8402 15.0914 13.9674 14.7907 14.1756 14.5709C14.2913 14.4668 14.4069 14.3858 14.5573 14.328C14.7655 14.2355 14.9968 14.2124 15.2281 14.2586C15.2975 14.2702 15.3669 14.2933 15.4363 14.328C15.5057 14.3511 15.5751 14.3858 15.6445 14.4321C15.7024 14.4784 15.7602 14.5246 15.818 14.5709C16.0262 14.7907 16.1534 15.0914 16.1534 15.3921C16.1534 15.6928 16.0262 15.9935 15.818 16.2133Z" fill="#03989F"/>
</svg>
