<svg width="22" height="22" viewBox="0 0 22 22" fill="none" xmlns="http://www.w3.org/2000/svg">
<path d="M18.4006 13.1701C17.8944 12.6885 17.2222 12.4204 16.5235 12.4214C15.8248 12.4223 15.1534 12.6924 14.6486 13.1754L12.9777 14.5833C11.6137 14.0189 10.3747 13.1906 9.33181 12.146C8.28894 11.1013 7.46278 9.86084 6.90079 8.49589L8.30342 6.83027C8.78644 6.32545 9.05648 5.65399 9.05746 4.95531C9.05844 4.25663 8.79028 3.58441 8.30868 3.07824C8.30868 3.07824 6.68514 0.969919 6.65884 0.941867C6.15826 0.438552 5.47986 0.152228 4.77004 0.144684C4.06022 0.13714 3.37589 0.40898 2.86473 0.901541L1.85747 1.77818C-4.91021 8.97453 12.5525 26.4451 19.741 19.574L20.5405 18.6544C21.0485 18.145 21.3338 17.4549 21.3338 16.7354C21.3338 16.016 21.0485 15.3259 20.5405 14.8165C20.5115 14.7937 18.4006 13.1701 18.4006 13.1701Z" fill="#03989F"/>
</svg>
