<svg width="58" height="57" viewBox="0 0 58 57" fill="none" xmlns="http://www.w3.org/2000/svg">
<circle cx="28.8306" cy="28.6445" r="28.3384" fill="#F4F4F4"/>
<path d="M36.4006 31.1701C35.8944 30.6885 35.2222 30.4204 34.5235 30.4214C33.8248 30.4223 33.1534 30.6924 32.6486 31.1754L30.9777 32.5833C29.6137 32.0189 28.3747 31.1906 27.3318 30.146C26.2889 29.1013 25.4628 27.8608 24.9008 26.4959L26.3034 24.8303C26.7864 24.3255 27.0565 23.654 27.0575 22.9553C27.0584 22.2566 26.7903 21.5844 26.3087 21.0782C26.3087 21.0782 24.6851 18.9699 24.6588 18.9419C24.1583 18.4386 23.4799 18.1522 22.77 18.1447C22.0602 18.1371 21.3759 18.409 20.8647 18.9015L19.8575 19.7782C13.0898 26.9745 30.5525 44.4451 37.741 37.574L38.5405 36.6544C39.0485 36.145 39.3338 35.4549 39.3338 34.7354C39.3338 34.016 39.0485 33.3259 38.5405 32.8165C38.5115 32.7937 36.4006 31.1701 36.4006 31.1701Z" fill="#03989F"/>
</svg>
