<svg width="58" height="57" viewBox="0 0 58 57" fill="none" xmlns="http://www.w3.org/2000/svg">
<circle cx="29.0571" cy="28.6445" r="28.3384" fill="#F4F4F4"/>
<path d="M29.0547 16.3887C35.7945 16.3887 41.2578 21.852 41.2578 28.5918C41.2578 35.3316 35.7945 40.7949 29.0547 40.7949C26.8981 40.7984 24.7795 40.2277 22.9165 39.1414L16.8565 40.7949L18.5063 34.7324C17.4191 32.8688 16.848 30.7493 16.8516 28.5918C16.8516 21.852 22.3149 16.3887 29.0547 16.3887ZM24.8959 22.8563L24.6518 22.8661C24.4938 22.8757 24.3394 22.9172 24.1979 22.9881C24.0655 23.0631 23.9446 23.1568 23.8391 23.2663C23.6926 23.4042 23.6097 23.5238 23.5206 23.6398C23.0692 24.2266 22.8262 24.9471 22.8299 25.6874C22.8323 26.2854 22.9885 26.8675 23.2326 27.4117C23.7317 28.5125 24.553 29.6779 25.6366 30.7578C25.8977 31.0178 26.154 31.2789 26.4298 31.5218C27.7763 32.7072 29.3808 33.5622 31.1158 34.0185L31.8089 34.1247C32.0347 34.1369 32.2605 34.1198 32.4874 34.1088C32.8428 34.0905 33.1899 33.9942 33.504 33.8269C33.6638 33.7446 33.8197 33.655 33.9713 33.5585C33.9713 33.5585 34.0238 33.5243 34.1239 33.4486C34.2886 33.3266 34.3899 33.24 34.5266 33.0972C34.6279 32.9922 34.7157 32.869 34.7828 32.7286C34.878 32.5297 34.9732 32.1502 35.0123 31.8342C35.0415 31.5925 35.033 31.4607 35.0293 31.379C35.0245 31.2484 34.9159 31.113 34.7975 31.0556L34.0873 30.7371C34.0873 30.7371 33.0256 30.2746 32.3764 29.9793C32.3085 29.9496 32.2357 29.9327 32.1616 29.9292C32.0781 29.9207 31.9938 29.9301 31.9142 29.9568C31.8346 29.9835 31.7617 30.027 31.7003 30.0842C31.6942 30.0818 31.6125 30.1513 30.7302 31.2203C30.6795 31.2884 30.6098 31.3398 30.5298 31.3681C30.4498 31.3963 30.3633 31.4001 30.2811 31.379C30.2016 31.3577 30.1237 31.3307 30.048 31.2984C29.8967 31.235 29.8442 31.2106 29.7405 31.1666C29.0401 30.861 28.3917 30.4481 27.8185 29.9427C27.6648 29.8084 27.522 29.662 27.3755 29.5204C26.8955 29.0607 26.4771 28.5405 26.1308 27.9731L26.0588 27.8572C26.0071 27.7793 25.9653 27.6952 25.9344 27.607C25.888 27.4276 26.0088 27.2836 26.0088 27.2836C26.0088 27.2836 26.3053 26.959 26.4432 26.7833C26.5775 26.6124 26.691 26.4465 26.7642 26.3281C26.9082 26.0963 26.9533 25.8583 26.8777 25.674C26.536 24.8393 26.1821 24.0083 25.8184 23.1834C25.7464 23.0198 25.5329 22.9027 25.3388 22.8795C25.273 22.8722 25.2071 22.8649 25.1412 22.86C24.9773 22.8518 24.8131 22.8535 24.6494 22.8649L24.8947 22.8551L24.8959 22.8563Z" fill="#03989F"/>
</svg>
