<svg width="26" height="25" viewBox="0 0 26 25" fill="none" xmlns="http://www.w3.org/2000/svg">
<path d="M13.0547 0.388672C19.7945 0.388672 25.2578 5.85201 25.2578 12.5918C25.2578 19.3316 19.7945 24.7949 13.0547 24.7949C10.8981 24.7984 8.77953 24.2277 6.91653 23.1414L0.856461 24.7949L2.50632 18.7324C1.41914 16.8688 0.847977 14.7493 0.851579 12.5918C0.851579 5.85201 6.31492 0.388672 13.0547 0.388672ZM8.89587 6.85632L8.65181 6.86609C8.49381 6.87571 8.33939 6.91722 8.19786 6.98812C8.06548 7.06308 7.94464 7.15679 7.83908 7.26635C7.69265 7.40424 7.60967 7.52383 7.52058 7.63976C7.06922 8.22662 6.82619 8.9471 6.82989 9.68745C6.83233 10.2854 6.98853 10.8675 7.23259 11.4117C7.7317 12.5125 8.55297 13.6779 9.6366 14.7578C9.89775 15.0178 10.154 15.2789 10.4298 15.5218C11.7763 16.7072 13.3808 17.5622 15.1158 18.0185L15.8089 18.1247C16.0347 18.1369 16.2605 18.1198 16.4874 18.1088C16.8428 18.0905 17.1899 17.9942 17.504 17.8269C17.6638 17.7446 17.8197 17.655 17.9713 17.5585C17.9713 17.5585 18.0238 17.5243 18.1239 17.4486C18.2886 17.3266 18.3899 17.24 18.5266 17.0972C18.6279 16.9922 18.7157 16.869 18.7828 16.7286C18.878 16.5297 18.9732 16.1502 19.0123 15.8342C19.0415 15.5925 19.033 15.4607 19.0293 15.379C19.0245 15.2484 18.9159 15.113 18.7975 15.0556L18.0873 14.7371C18.0873 14.7371 17.0256 14.2746 16.3764 13.9793C16.3085 13.9496 16.2357 13.9327 16.1616 13.9292C16.0781 13.9207 15.9938 13.9301 15.9142 13.9568C15.8346 13.9835 15.7617 14.027 15.7003 14.0842C15.6942 14.0818 15.6125 14.1513 14.7302 15.2203C14.6795 15.2884 14.6098 15.3398 14.5298 15.3681C14.4498 15.3963 14.3633 15.4001 14.2811 15.379C14.2016 15.3577 14.1237 15.3307 14.048 15.2984C13.8967 15.235 13.8442 15.2106 13.7405 15.1666C13.0401 14.861 12.3917 14.4481 11.8185 13.9427C11.6648 13.8084 11.522 13.662 11.3755 13.5204C10.8955 13.0607 10.4771 12.5405 10.1308 11.9731L10.0588 11.8572C10.0071 11.7793 9.96531 11.6952 9.93436 11.607C9.88799 11.4276 10.0088 11.2836 10.0088 11.2836C10.0088 11.2836 10.3053 10.959 10.4432 10.7833C10.5775 10.6124 10.691 10.4465 10.7642 10.3281C10.9082 10.0963 10.9533 9.85829 10.8777 9.67402C10.536 8.83933 10.1821 8.0083 9.81843 7.18337C9.74643 7.01985 9.53288 6.9027 9.33885 6.87951C9.27295 6.87219 9.20705 6.86487 9.14116 6.85998C8.97728 6.85184 8.81306 6.85347 8.64937 6.86487L8.89465 6.8551L8.89587 6.85632Z" fill="#03989F"/>
</svg>
