<svg width="50" height="55" viewBox="0 0 50 55" fill="none" xmlns="http://www.w3.org/2000/svg">
<path d="M21.9855 33.6577C21.8466 33.8344 21.7735 34.0347 21.7734 34.2386L21.7856 44.351C21.7856 44.351 21.7856 45.2382 22.9951 45.2382H28.6392C29.8486 45.2382 29.8486 44.351 29.8486 44.351V27.4711C29.8484 27.1987 29.8484 27.1987 30.013 27.4711L41.9431 44.351C42.3463 44.9424 42.5478 45.2382 43.1525 45.2382H48.7966C48.7966 45.2382 50.006 45.2382 50.006 44.351V16.5525C50.006 16.5525 50.006 15.6653 48.7966 15.6653L43.1525 15.6653C43.1525 15.6653 41.9431 15.6653 41.9431 16.5525V33.0707C41.9431 33.0707 41.9429 34.0005 41.1366 33.1133L33.5813 22.4762C33.4492 22.292 33.2521 22.1372 33.0106 22.0278C32.7691 21.9185 32.492 21.8587 32.2083 21.8547C31.9245 21.8507 31.6445 21.9026 31.3975 22.005C31.1504 22.1074 30.9453 22.2566 30.8036 22.4369L21.9855 33.6577Z" fill="#03989F"/>
<path d="M18.4219 38.9531L1.2095 39.0317C1.2095 39.0317 -3.5238e-10 39.0317 0 38.1445L5.15705e-05 10.346C5.15705e-05 9.45886 1.2095 9.45886 1.2095 9.45886H19.3512C19.3512 9.45886 26.2071 9.45886 26.2071 14.4848V19.8094C26.2071 19.8094 26.2071 24.2453 20.1575 24.2453C20.1575 24.2453 26.2071 24.2453 26.2047 28.6812L18.4219 38.9531Z" fill="#03989F"/>
<path d="M7.66406 14.1853H14.8525C16.8941 14.1853 18.5491 15.8403 18.5491 17.8819C18.5491 19.9235 16.8941 21.5785 14.8525 21.5785H7.66406V14.1853Z" fill="white"/>
<path d="M7.66406 26.9026H14.8525C16.8941 26.9026 18.5491 28.5576 18.5491 30.5992C18.5491 32.6408 16.8941 34.2958 14.8525 34.2958H7.66406V26.9026Z" fill="white"/>
<path d="M24.0859 0C61.7282 21.2172 -0.45138 35.6466 26.0723 54.9988C-6.39325 33.383 52.2992 21.7719 24.0859 0Z" fill="#FFDC00"/>
</svg>
