<svg width="30" height="31" viewBox="0 0 30 31" fill="none" xmlns="http://www.w3.org/2000/svg">
<g id="brand-facebook">
<g id="Path">
<path d="M8.75 12.9937V17.9937H12.5V26.7437H17.5V17.9937H21.25L22.5 12.9937H17.5V10.4937C17.5 9.8033 18.0596 9.24365 18.75 9.24365H22.5V4.24365H18.75C15.2982 4.24365 12.5 7.04187 12.5 10.4937V12.9937H8.75" stroke="#00B5C0" stroke-width="1.5" stroke-linecap="round" stroke-linejoin="round"/>
<path d="M8.75 12.9937V17.9937H12.5V26.7437H17.5V17.9937H21.25L22.5 12.9937H17.5V10.4937C17.5 9.8033 18.0596 9.24365 18.75 9.24365H22.5V4.24365H18.75C15.2982 4.24365 12.5 7.04187 12.5 10.4937V12.9937H8.75" stroke="#00B5C0" stroke-opacity="0.05" stroke-width="1.5" stroke-linecap="round" stroke-linejoin="round"/>
</g>
</g>
</svg>
