<svg width="30" height="31" viewBox="0 0 30 31" fill="none" xmlns="http://www.w3.org/2000/svg">
<g id="brand-linkedin">
<g id="Rectangle">
<rect x="5" y="5.49365" width="20" height="20" rx="2" stroke="#00B5C0" stroke-width="1.5" stroke-linecap="round" stroke-linejoin="round"/>
<rect x="5" y="5.49365" width="20" height="20" rx="2" stroke="#00B5C0" stroke-opacity="0.05" stroke-width="1.5" stroke-linecap="round" stroke-linejoin="round"/>
</g>
<g id="Path">
<path d="M10 14.2437V20.4937" stroke="#00B5C0" stroke-width="1.5" stroke-linecap="round" stroke-linejoin="round"/>
<path d="M10 14.2437V20.4937" stroke="#00B5C0" stroke-opacity="0.05" stroke-width="1.5" stroke-linecap="round" stroke-linejoin="round"/>
</g>
<g id="Path_2">
<path d="M10 10.4938V10.5062" stroke="#00B5C0" stroke-width="1.5" stroke-linecap="round" stroke-linejoin="round"/>
<path d="M10 10.4938V10.5062" stroke="#00B5C0" stroke-opacity="0.05" stroke-width="1.5" stroke-linecap="round" stroke-linejoin="round"/>
</g>
<g id="Path_3">
<path d="M15 20.4937V14.2437" stroke="#00B5C0" stroke-width="1.5" stroke-linecap="round" stroke-linejoin="round"/>
<path d="M15 20.4937V14.2437" stroke="#00B5C0" stroke-opacity="0.05" stroke-width="1.5" stroke-linecap="round" stroke-linejoin="round"/>
</g>
<g id="Path_4">
<path d="M20 20.4937V16.7437C20 15.3629 18.8807 14.2437 17.5 14.2437C16.1193 14.2437 15 15.3629 15 16.7437" stroke="#00B5C0" stroke-width="1.5" stroke-linecap="round" stroke-linejoin="round"/>
<path d="M20 20.4937V16.7437C20 15.3629 18.8807 14.2437 17.5 14.2437C16.1193 14.2437 15 15.3629 15 16.7437" stroke="#00B5C0" stroke-opacity="0.05" stroke-width="1.5" stroke-linecap="round" stroke-linejoin="round"/>
</g>
</g>
</svg>
